<svg width="22" height="20" viewBox="0 0 22 20" fill="none" xmlns="http://www.w3.org/2000/svg">
<path d="M18.6358 19.5824C18.3582 19.86 17.9929 20 17.6299 20C17.2645 20 16.8992 19.86 16.6216 19.5824C16.0664 19.0249 16.0664 18.1257 16.6216 17.5682C19.7604 14.4294 19.7604 9.32384 16.6216 6.18505C13.4852 3.04864 8.37722 3.04864 5.24081 6.18505L4.72598 6.69988H8.12337C8.90866 6.69988 9.54686 7.33808 9.54686 8.12337C9.54686 8.91103 8.90866 9.54686 8.12337 9.54686H1.42349C0.638197 9.54686 0 8.91103 0 8.12337V1.42349C0 0.638197 0.638197 0 1.42349 0C2.20878 0 2.84697 0.638197 2.84697 1.42349V4.55279L3.22657 4.17319C7.47568 -0.0759193 14.3867 -0.0759193 18.6358 4.17319C22.8849 8.4223 22.8849 15.3333 18.6358 19.5824Z" fill="#639EFF"/>
</svg>
