<svg width="13" height="14" viewBox="0 0 13 14" fill="none" xmlns="http://www.w3.org/2000/svg">
<path d="M12.9192 1.74158V3.06038C12.9192 3.98719 12.1688 4.74039 11.2392 4.74039C10.4356 4.74039 9.7636 4.17479 9.5984 3.42159H8.4364V10.5868C9.2792 10.6792 9.9372 11.3932 9.9372 12.2584C9.9372 13.188 9.184 13.9384 8.2572 13.9384H5.2556C4.326 13.9384 3.5756 13.188 3.5756 12.2584C3.5756 11.3932 4.2308 10.6792 5.0764 10.5868V3.42159H3.9144C3.7492 4.17479 3.0772 4.74039 2.2708 4.74039C1.344 4.74039 0.590805 3.98719 0.590805 3.06038V1.74158C0.590805 0.811985 1.344 0.0615845 2.2708 0.0615845H11.2392C12.1688 0.0615845 12.9192 0.811985 12.9192 1.74158Z" fill="#639EFF"/>
</svg>
