<svg width="22" height="20" viewBox="0 0 22 20" fill="none" xmlns="http://www.w3.org/2000/svg">
<path d="M3.18684 19.5824C3.46442 19.86 3.82978 20 4.19277 20C4.55813 20 4.92349 19.86 5.20107 19.5824C5.75624 19.0249 5.75624 18.1257 5.20107 17.5682C2.06229 14.4294 2.06229 9.32384 5.20107 6.18505C8.33749 3.04864 13.4454 3.04864 16.5819 6.18505L17.0967 6.69988H13.6993C12.914 6.69988 12.2758 7.33808 12.2758 8.12337C12.2758 8.91103 12.914 9.54686 13.6993 9.54686H20.3992C21.1845 9.54686 21.8227 8.91103 21.8227 8.12337V1.42349C21.8227 0.638197 21.1845 0 20.3992 0C19.6139 0 18.9757 0.638197 18.9757 1.42349V4.55279L18.5961 4.17319C14.347 -0.0759193 7.43595 -0.0759193 3.18684 4.17319C-1.06227 8.4223 -1.06227 15.3333 3.18684 19.5824Z" fill="#639EFF"/>
</svg>
